<svg xmlns="http://www.w3.org/2000/svg" width="24" height="24" fill="none" viewBox="0 0 24 24"><path fill="#000" fill-rule="evenodd" d="M1.25 5C1.25 2.92893 2.92893 1.25 5 1.25H19C21.0711 1.25 22.75 2.92893 22.75 5V19C22.75 21.0711 21.0711 22.75 19 22.75H11C10.5858 22.75 10.25 22.4142 10.25 22C10.25 21.5858 10.5858 21.25 11 21.25H19C20.2426 21.25 21.25 20.2426 21.25 19V5C21.25 3.75736 20.2426 2.75 19 2.75H5C3.75736 2.75 2.75 3.75736 2.75 5V19C2.75 20.2426 3.75736 21.25 5 21.25H7C7.41421 21.25 7.75 21.5858 7.75 22C7.75 22.4142 7.41421 22.75 7 22.75H5C2.92893 22.75 1.25 21.0711 1.25 19V5Z" clip-rule="evenodd"/><path fill="#000" fill-rule="evenodd" d="M1.25 9C1.25 8.58579 1.58579 8.25 2 8.25H22C22.4142 8.25 22.75 8.58579 22.75 9 22.75 9.41421 22.4142 9.75 22 9.75H2C1.58579 9.75 1.25 9.41421 1.25 9zM6.5 4.75C6.08579 4.75 5.75 5.08579 5.75 5.5 5.75 5.91421 6.08579 6.25 6.5 6.25 6.91421 6.25 7.25 5.91421 7.25 5.5 7.25 5.08579 6.91421 4.75 6.5 4.75zM4.25 5.5C4.25 4.25736 5.25736 3.25 6.5 3.25 7.74264 3.25 8.75 4.25736 8.75 5.5 8.75 6.74264 7.74264 7.75 6.5 7.75 5.25736 7.75 4.25 6.74264 4.25 5.5zM10.25 5.5C10.25 5.08579 10.5858 4.75 11 4.75H19C19.4142 4.75 19.75 5.08579 19.75 5.5 19.75 5.91421 19.4142 6.25 19 6.25H11C10.5858 6.25 10.25 5.91421 10.25 5.5z" clip-rule="evenodd"/></svg>